<?xml version="1.0" encoding="UTF-8"?>
<svg
  width="24"
  height="24"
  version="1.1"
  viewBox="0 0 24 24"
  xmlns="http://www.w3.org/2000/svg"
>
  <path
    d="m14.857 2.1071-0.14286-0.10714-0.42857 0.035716-3.8928 1.9643h-0.07143l-6.4643 3.2143-0.28572 0.25-0.071429 0.17857v11.214l0.035716 0.10715 0.21428 0.28573 0.39285 0.25002 0.35714-0.0359 0.071429-0.07144h0.071427l4.75-2.3927 0.07143-0.07143 2.75-1.3571 0.07142-0.07143 0.53571-0.25 0.07142-0.10714v-0.14286l-0.14284-0.17858-1.2857-1.0357-0.32142-0.21427-0.28571-0.03571-0.14286 0.03571-4.1428 2.1071h-0.071429l-0.035716-0.03571v-2.0357l0.071429-0.07142 4.6428-2.3214 0.17857-0.03571 0.10714 0.03571 3.25 2.5714 0.17857 0.10714h0.21428l0.10714-0.07142 0.17857-0.35714v-0.07142l0.78571-1.6786 0.14286-0.39287 1.0357-2.2143 0.07142-0.07142h0.07142l0.07143 0.10715v6.2143l-0.03571 0.10715-0.10715 0.10714-0.32142 0.14286-0.07143 0.07143-1.4643 0.71428-0.07142 0.07142-1.6071 0.78571-0.07142 0.07143-4.0714 2.0714-0.14286 0.14287-0.10714 0.28572v1.5357l0.10714 0.28573 0.28572 0.25002h0.35714l0.25-0.14287h0.07142l0.07142-0.07144 0.82142-0.39283 0.07142-0.07144 1.75-0.85714 0.07142-0.07144 5.5714-2.8214 0.07142-0.07142 1.2143-0.6072 0.14286-0.14286 0.10715-0.21428v-0.17857l0.03571-0.03571v-10.714l-0.03571-0.035716v-0.14286l-0.17854-0.32143-0.32143-0.21428-0.32143-0.035716-0.21428 0.071427-3.6428 1.8214-0.25 0.28571-1.1786 2.5357v0.07142l-0.17857 0.32142v0.07142l-0.07142 0.07142h-0.10714l-2.1428-1.7143-0.39286-0.03571-4.8571 2.4286-0.14286-0.0357v-2l0.10714-0.10715 7.9285-4 0.28571-0.25 0.14286-0.35714v-1.7857z"
    fill="none"
    stroke="currentColor"
    stroke-width="1.5"
    stroke-linecap="round"
    stroke-linejoin="round"
    fill-rule="evenodd"
    shape-rendering="geometricPrecision"
  />
</svg>
